<svg xmlns="http://www.w3.org/2000/svg" xmlns:xlink="http://www.w3.org/1999/xlink" style="enable-background:new 0 0 512 512" id="Layer_1" width="512" height="512" x="0" y="0" version="1.1" viewBox="0 0 512 512" xml:space="preserve"><g><g><path fill="#91DC5A" d="M256,0C114.615,0,0,114.615,0,256s114.615,256,256,256s256-114.615,256-256S397.385,0,256,0z M230.4,358.4 c0,14.138-11.462,25.6-25.6,25.6h-25.6c-14.138,0-25.6-11.461-25.6-25.6V153.6c0-14.139,11.461-25.6,25.6-25.6h25.6 c14.138,0,25.6,11.461,25.6,25.6V358.4z M358.4,358.4c0,14.138-11.462,25.6-25.6,25.6h-25.6c-14.138,0-25.6-11.461-25.6-25.6 V153.6c0-14.139,11.461-25.6,25.6-25.6h25.6c14.138,0,25.6,11.461,25.6,25.6V358.4z"/></g></g></svg>